# xmcd
#
# Track frame offsets:
#	150
#	21406
#	43377
#
# Disc length: 989 seconds
#
# Revision: 2
# Processed by: cddbd v1.5.2PL0 Copyright (c) Steve Scherf et al.
# Submitted via: EasyCDDAExtractor 2010.6.0.0
#
DISCID=2503db03
DTITLE=Liekki - Korppi /single)
DYEAR=2003
DGENRE=
TTITLE0=Korppi
TTITLE1=M.A.A.
TTITLE2=Yölento
EXTD=
EXTT0=
EXTT1=
EXTT2=
PLAYORDER=
